<?xml version="1.0" encoding="UTF-8"?>
<svg id="Layer_2" xmlns="http://www.w3.org/2000/svg" viewBox="0 0 503.49 320.29">
    <defs>
        <style>.cls-1{fill:none}.cls-2{fill:#ff5a3d;}</style>
    </defs>
    <g id="Layer_1-2">
        <g>
            <rect class="cls-1" width="503.49" height="320.29" />
            <g>
                <g>
                    <g>
                        <path class="cls-2"
                            d="M440.93,100.5s-14.82,.57-19.01,.73c-.52,.02-.89-.5-.71-.99l5.08-13.66c.18-.49,.8-.64,1.18-.28,3.07,2.86,13.92,12.97,13.92,12.97,.46,.43,.17,1.21-.46,1.23Zm-33.75-28.3c.61-.4,.61-1.29,0-1.69-3.96-2.61-15.77-10.31-15.77-10.31-.53-.35-1.22,.12-1.09,.74l3.8,18.23c.15,.7,.95,1.04,1.55,.64l11.51-7.6Zm22.88-8.37c.03-.07,.04-.15,.04-.22,0-.02,0-.04,0-.06,0-.05,0-.1-.02-.14,0-.02-.01-.04-.02-.06-.02-.05-.04-.09-.07-.14,0-.01-.01-.03-.02-.04-.04-.05-.08-.1-.13-.14-.01,0-.02-.02-.04-.02-.04-.03-.08-.06-.13-.08-.02,0-.04-.02-.06-.02-.04-.02-.09-.03-.14-.03-.02,0-.04,0-.06,0-.05,0-.09,0-.14,.01-.02,0-.05,0-.07,.01-.07,.02-.14,.05-.21,.09,0,0,0,0,0,0l-49.23,32.72c-.2,.13-.3,.33-.32,.54,0,.07,0,.14,.01,.2,0,.03,.02,.06,.03,.09,.06,.17,.18,.32,.35,.4,.07,.03,.14,.05,.22,.06l20.38,2.49c.13,.02,.26,.07,.36,.15,.1,.08,.18,.19,.23,.31l7.09,19.27c.02,.06,.05,.1,.08,.15,.01,.02,.02,.04,.03,.06,.03,.03,.06,.05,.09,.08,.02,.02,.04,.05,.07,.06,.03,.02,.06,.03,.09,.04,.03,.02,.07,.04,.1,.05,.03,0,.05,0,.08,.01,.04,0,.08,.02,.12,.02,.03,0,.06,0,.09-.01,.04,0,.08,0,.11-.02,.03,0,.06-.03,.08-.04,.04-.02,.07-.03,.11-.05,.04-.03,.08-.06,.11-.1,.02-.02,.03-.03,.05-.04,.05-.06,.09-.13,.11-.2l8.78-23.63,11.81-31.78s0,0,0,0Z" />
                        <path class="cls-2"
                            d="M111.65,124.63h-16.39v45.38h-16.7v-45.38h-16.39v-14.97h49.48v14.97Z" />
                        <path class="cls-2"
                            d="M139.13,151.54h-6.03v18.46h-16.62v-60.34h26.16c13.01,0,22.44,8.74,22.44,21.36,0,7.4-3.62,13.47-9.58,17.04l11.98,21.95h-18.56l-9.79-18.46Zm-6.03-14h7.59c4.65,0,7.32-2.8,7.32-6.57s-2.68-6.53-7.32-6.53h-7.59v13.1Z" />
                        <path class="cls-2"
                            d="M211.94,155.58v14.42h-39.34v-60.34h38.61v14.37h-22.06v8.88h19.82v13.64h-19.82v9.03h22.79Z" />
                        <path class="cls-2"
                            d="M276.9,109.66l-23.1,60.34h-15.48l-23.59-60.34h18.97l12.32,37.51,12.02-37.51h18.87Z" />
                        <path class="cls-2"
                            d="M306.19,171.53c-19.4,0-33.24-13.25-33.24-31.7s13.84-31.7,33.24-31.7,33.14,13.21,33.14,31.7-13.79,31.7-33.14,31.7h0Zm0-15.47c9.18,0,15.83-6.78,15.83-16.23s-6.65-16.23-15.83-16.23-15.93,6.83-15.93,16.23,6.75,16.23,15.93,16.23h0Z" />
                        <path class="cls-2"
                            d="M367.9,151.54h-6.03v18.46h-16.62v-60.34h26.16c13.01,0,22.44,8.74,22.44,21.36,0,7.4-3.62,13.47-9.58,17.04l11.98,21.95h-18.56l-9.79-18.46Zm-6.03-14h7.59c4.65,0,7.32-2.8,7.32-6.57s-2.68-6.53-7.32-6.53h-7.59v13.1Z" />
                        <g>
                            <path class="cls-2"
                                d="M77.99,84.96h-5.22v14.46h-5.32v-14.46h-5.22v-4.77h15.77v4.77Z" />
                            <path class="cls-2"
                                d="M96.21,80.19v19.23h-5.34v-7.38h-5.77v7.38h-5.34v-19.23h5.34v6.94h5.77v-6.94h5.34Z" />
                            <path class="cls-2"
                                d="M111.58,94.82v4.59h-12.54v-19.23h12.3v4.58h-7.03v2.83h6.32v4.35h-6.32v2.88h7.26Z" />
                        </g>
                    </g>
                    <g>
                        <path class="cls-2"
                            d="M270.5,206.6v8.55h-23.33v-35.78h22.9v8.52h-13.08v5.27h11.75v8.09h-11.75v5.36h13.51Z" />
                        <path class="cls-2"
                            d="M339.23,188.24h-9.72v26.91h-9.9v-26.91h-9.72v-8.88h29.34v8.88Z" />
                        <path class="cls-2"
                            d="M144.97,192.29c0,7.5-5.65,12.97-13.26,12.97h-5.35v9.88h-9.88v-35.78h15.24c7.61,0,13.26,5.42,13.26,12.93Zm-10.13,.02c0-2.54-1.71-4.34-4.31-4.34h-4.17v8.68h4.17c2.59,0,4.31-1.8,4.31-4.34Z" />
                        <path class="cls-2"
                            d="M160.84,204.2h-3.57v10.95h-9.86v-35.78h15.51c7.71,0,13.31,5.18,13.31,12.66,0,4.39-2.14,7.99-5.68,10.11l7.11,13.01h-11l-5.81-10.95Zm-3.57-8.3h4.5c2.76,0,4.34-1.66,4.34-3.9s-1.59-3.87-4.34-3.87h-4.5v7.77Z" />
                        <path class="cls-2"
                            d="M198.52,216.05c-11.5,0-19.71-7.86-19.71-18.8s8.21-18.8,19.71-18.8,19.65,7.83,19.65,18.8-8.18,18.8-19.65,18.8h0Zm0-9.17c5.45,0,9.39-4.02,9.39-9.62s-3.94-9.62-9.39-9.62-9.45,4.05-9.45,9.62,4,9.62,9.45,9.62h0Z" />
                        <path class="cls-2"
                            d="M232.42,179.36v23.01c0,2.77-1.62,4.5-3.95,4.5-1.63,0-3.1-.6-4.04-1.74l-7.3,5.86c2.46,3.16,6.46,5.06,11.34,5.06,8.29,0,13.88-5.42,13.88-13.17v-23.52h-9.93Z" />
                        <path class="cls-2"
                            d="M293.11,206.82c-5.07,0-9.34-4.02-9.34-9.54s4.27-9.62,9.34-9.62c2.47,0,4.65,1.03,6.21,2.78l8.42-4.95c-3.29-4.38-8.52-7.04-14.66-7.04-10.89,0-19.03,8.06-19.03,18.83s8.13,18.77,19.03,18.77h0c6.16,0,11.39-2.67,14.69-7.11l-8.45-4.97c-1.51,1.79-3.69,2.84-6.21,2.84Z" />
                    </g>
                </g>
                <g>
                    <path class="cls-2"
                        d="M116.38,260.77v-18.57h7.67c.18,0,.41,0,.7,.02,.28,.01,.55,.04,.79,.08,1.07,.16,1.96,.52,2.66,1.07,.7,.55,1.22,1.24,1.56,2.08,.34,.84,.51,1.77,.51,2.79s-.17,1.94-.52,2.78c-.34,.84-.87,1.53-1.57,2.08-.7,.55-1.58,.91-2.65,1.07-.24,.03-.5,.06-.79,.08-.29,.02-.52,.03-.69,.03h-4.56v6.49h-3.11Zm3.11-9.39h4.44c.17,0,.37,0,.58-.03,.21-.02,.41-.05,.59-.1,.52-.13,.92-.36,1.22-.68,.3-.33,.51-.7,.63-1.11,.12-.41,.19-.82,.19-1.21s-.06-.8-.19-1.22c-.12-.42-.33-.79-.63-1.12-.3-.33-.7-.55-1.22-.68-.18-.05-.38-.08-.59-.1-.22-.01-.41-.02-.58-.02h-4.44v6.27Z" />
                    <path class="cls-2"
                        d="M136.39,261.16c-1.01,0-1.86-.19-2.55-.57-.7-.38-1.22-.89-1.58-1.53-.36-.64-.54-1.34-.54-2.1,0-.67,.11-1.27,.33-1.81s.57-1,1.03-1.39c.46-.39,1.07-.71,1.81-.96,.56-.18,1.21-.34,1.97-.49s1.57-.28,2.45-.41c.88-.12,1.8-.26,2.77-.41l-1.11,.63c0-.96-.21-1.67-.64-2.13-.44-.46-1.18-.68-2.22-.68-.63,0-1.23,.15-1.82,.44-.58,.29-.99,.8-1.22,1.51l-2.84-.89c.34-1.18,1-2.12,1.97-2.84,.97-.71,2.27-1.07,3.91-1.07,1.24,0,2.33,.2,3.27,.61,.94,.4,1.64,1.07,2.1,1.99,.25,.49,.4,.99,.45,1.5,.05,.51,.08,1.07,.08,1.67v8.55h-2.72v-3.02l.45,.49c-.63,1.01-1.36,1.74-2.2,2.21-.84,.47-1.89,.7-3.14,.7Zm.62-2.48c.71,0,1.31-.12,1.81-.37,.5-.25,.9-.55,1.19-.92,.3-.36,.5-.7,.6-1.02,.16-.4,.26-.85,.28-1.36s.03-.93,.03-1.25l.96,.28c-.94,.15-1.74,.28-2.41,.39-.67,.11-1.25,.22-1.73,.32-.48,.1-.91,.21-1.28,.33-.36,.13-.67,.28-.92,.45-.25,.17-.44,.37-.57,.59-.13,.22-.2,.49-.2,.79,0,.34,.09,.65,.26,.91,.17,.26,.42,.47,.75,.62s.74,.23,1.23,.23Z" />
                    <path class="cls-2"
                        d="M147.35,260.77v-13.93h2.75v3.39l-.33-.44c.17-.46,.4-.89,.69-1.27,.29-.38,.63-.7,1.04-.95,.34-.23,.72-.42,1.14-.55,.42-.13,.84-.21,1.28-.24,.44-.03,.86-.01,1.28,.06v2.9c-.41-.12-.89-.16-1.43-.12-.54,.04-1.02,.19-1.45,.45-.43,.23-.78,.53-1.05,.89-.27,.36-.47,.77-.6,1.23s-.19,.96-.19,1.49v7.08h-3.12Z" />
                    <path class="cls-2"
                        d="M161.22,261.16c-1.01,0-1.86-.19-2.55-.57-.7-.38-1.22-.89-1.58-1.53-.36-.64-.54-1.34-.54-2.1,0-.67,.11-1.27,.34-1.81,.22-.54,.57-1,1.03-1.39,.46-.39,1.07-.71,1.81-.96,.56-.18,1.21-.34,1.97-.49,.75-.15,1.57-.28,2.45-.41,.88-.12,1.8-.26,2.77-.41l-1.11,.63c0-.96-.21-1.67-.65-2.13-.44-.46-1.18-.68-2.22-.68-.63,0-1.23,.15-1.82,.44-.58,.29-.99,.8-1.23,1.51l-2.84-.89c.34-1.18,1-2.12,1.97-2.84s2.27-1.07,3.91-1.07c1.24,0,2.33,.2,3.27,.61,.94,.4,1.64,1.07,2.1,1.99,.25,.49,.4,.99,.45,1.5,.05,.51,.08,1.07,.08,1.67v8.55h-2.72v-3.02l.45,.49c-.63,1.01-1.36,1.74-2.2,2.21-.84,.47-1.88,.7-3.14,.7Zm.62-2.48c.71,0,1.31-.12,1.81-.37,.5-.25,.9-.55,1.19-.92s.5-.7,.6-1.02c.16-.4,.26-.85,.28-1.36s.03-.93,.03-1.25l.95,.28c-.94,.15-1.74,.28-2.41,.39-.67,.11-1.25,.22-1.73,.32-.48,.1-.91,.21-1.28,.33-.36,.13-.67,.28-.92,.45s-.44,.37-.57,.59c-.13,.22-.2,.49-.2,.79,0,.34,.09,.65,.26,.91,.17,.26,.42,.47,.75,.62s.74,.23,1.23,.23Z" />
                    <path class="cls-2"
                        d="M181.05,261.16c-1.42,0-2.6-.37-3.54-1.11-.94-.74-1.6-1.74-1.98-2.99l3.07-.74c.09,.52,.37,.98,.83,1.35,.46,.38,.96,.57,1.51,.57,.36,0,.74-.1,1.15-.29,.4-.19,.7-.51,.9-.94,.12-.27,.19-.6,.21-.99s.03-.83,.03-1.33v-12.5h3.15v12.5c0,.58,0,1.08,0,1.52,0,.43-.05,.84-.13,1.22-.08,.38-.24,.78-.48,1.18-.51,.88-1.17,1.52-1.99,1.93-.82,.41-1.72,.61-2.72,.61Z" />
                    <path class="cls-2"
                        d="M195.47,261.17c-1.03,0-1.88-.17-2.55-.52s-1.2-.78-1.6-1.32c-.4-.53-.69-1.1-.88-1.7-.19-.6-.31-1.17-.37-1.71-.06-.54-.08-.97-.08-1.31v-7.78h3.15v6.71c0,.43,.03,.91,.09,1.45,.06,.54,.2,1.05,.42,1.55,.22,.5,.55,.9,.98,1.22,.43,.32,1.02,.48,1.76,.48,.4,0,.79-.06,1.17-.19s.74-.35,1.05-.66,.57-.75,.75-1.3c.19-.55,.28-1.25,.28-2.09l1.84,.79c0,1.19-.23,2.26-.69,3.22s-1.14,1.73-2.03,2.3c-.89,.57-1.99,.86-3.3,.86Zm4.55-.4v-4.32h-.37v-9.61h3.12v13.93h-2.75Z" />
                    <path class="cls-2"
                        d="M210.14,260.77l-5.06-13.93h3.11l3.51,10.1,3.5-10.1h3.12l-5.06,13.93h-3.12Z" />
                    <path class="cls-2"
                        d="M226.46,261.16c-1.41,0-2.65-.3-3.71-.92-1.07-.61-1.9-1.46-2.5-2.54s-.9-2.33-.9-3.74c0-1.52,.29-2.84,.88-3.96s1.4-1.99,2.44-2.61c1.04-.62,2.24-.93,3.61-.93,1.44,0,2.67,.34,3.68,1.01,1.01,.68,1.76,1.63,2.25,2.86,.49,1.23,.67,2.68,.55,4.35h-3.08v-1.13c0-1.51-.28-2.62-.8-3.31s-1.35-1.04-2.48-1.04c-1.27,0-2.22,.39-2.84,1.18-.62,.79-.93,1.94-.93,3.45,0,1.41,.31,2.5,.93,3.28,.62,.77,1.52,1.16,2.71,1.16,.76,0,1.42-.17,1.98-.51s.98-.83,1.28-1.48l3.07,.93c-.53,1.25-1.36,2.23-2.47,2.93-1.11,.7-2.34,1.04-3.68,1.04Zm-4.8-6.49v-2.35h9.58v2.35h-9.58Z" />
                    <path class="cls-2"
                        d="M235.24,260.77v-13.93h2.77v4.32h.37v9.61h-3.15Zm9.66,0v-6.71c0-.44-.03-.92-.09-1.46s-.2-1.05-.42-1.54-.55-.9-.98-1.22c-.43-.32-1.02-.48-1.76-.48-.4,0-.79,.06-1.17,.19s-.74,.35-1.05,.66-.57,.74-.75,1.29c-.19,.55-.28,1.24-.28,2.1l-1.84-.79c0-1.19,.23-2.26,.69-3.22s1.14-1.73,2.03-2.3c.89-.57,1.99-.86,3.3-.86,1.03,0,1.88,.17,2.55,.52s1.2,.78,1.6,1.32c.39,.53,.69,1.1,.88,1.7,.19,.6,.31,1.17,.37,1.71s.08,.97,.08,1.31v7.78h-3.15Z" />
                    <path class="cls-2"
                        d="M249.85,249.28v-2.44h9.71v2.44h-9.71Zm9.71,11.49c-.92,.17-1.82,.25-2.7,.23-.88-.02-1.67-.18-2.37-.49-.7-.3-1.23-.79-1.59-1.45-.32-.6-.49-1.22-.5-1.84-.02-.63-.03-1.34-.03-2.13v-12.11h3.1v11.93c0,.56,0,1.05,.02,1.47,.01,.42,.1,.77,.26,1.03,.31,.52,.8,.8,1.48,.86,.68,.06,1.45,.03,2.32-.1v2.61Z" />
                    <path class="cls-2"
                        d="M267.79,261.17c-1.03,0-1.88-.17-2.55-.52-.67-.34-1.2-.78-1.6-1.32s-.69-1.1-.88-1.7c-.19-.6-.31-1.17-.37-1.71-.06-.54-.08-.97-.08-1.31v-7.78h3.15v6.71c0,.43,.03,.91,.09,1.45,.06,.54,.2,1.05,.42,1.55,.22,.5,.55,.9,.98,1.22s1.02,.48,1.76,.48c.39,0,.79-.06,1.17-.19,.39-.13,.74-.35,1.05-.66,.31-.31,.56-.75,.75-1.3,.19-.55,.28-1.25,.28-2.09l1.84,.79c0,1.19-.23,2.26-.69,3.22-.46,.96-1.14,1.73-2.03,2.3-.89,.57-2,.86-3.3,.86Zm4.55-.4v-4.32h-.37v-9.61h3.12v13.93h-2.75Z" />
                    <path class="cls-2"
                        d="M284.28,261.16c-1.28,0-2.4-.32-3.35-.97-.95-.65-1.69-1.52-2.22-2.63-.52-1.11-.79-2.36-.79-3.75s.26-2.67,.79-3.77c.53-1.1,1.28-1.98,2.25-2.62s2.12-.96,3.43-.96,2.43,.32,3.33,.96,1.58,1.51,2.04,2.62c.46,1.11,.7,2.36,.7,3.77s-.23,2.63-.7,3.75c-.46,1.11-1.16,1.99-2.08,2.64-.92,.64-2.06,.97-3.42,.97Zm.48-2.79c.83,0,1.51-.19,2.02-.57s.89-.92,1.12-1.61,.35-1.48,.35-2.39-.12-1.71-.35-2.39-.6-1.22-1.1-1.6c-.5-.38-1.14-.57-1.93-.57-.83,0-1.52,.2-2.06,.61-.54,.41-.94,.96-1.2,1.65s-.39,1.46-.39,2.3,.13,1.62,.38,2.31c.25,.69,.64,1.24,1.17,1.64,.52,.4,1.19,.61,2,.61Zm3.5,2.4v-9.78h-.39v-8.79h3.13v18.57h-2.75Z" />
                    <path class="cls-2"
                        d="M300.95,261.16c-1.41,0-2.65-.3-3.71-.92-1.07-.61-1.9-1.46-2.5-2.54s-.9-2.33-.9-3.74c0-1.52,.29-2.84,.88-3.96,.58-1.12,1.4-1.99,2.44-2.61,1.04-.62,2.24-.93,3.61-.93,1.44,0,2.67,.34,3.68,1.01,1.01,.68,1.76,1.63,2.25,2.86,.49,1.23,.67,2.68,.55,4.35h-3.08v-1.13c0-1.51-.28-2.62-.8-3.31s-1.35-1.04-2.48-1.04c-1.27,0-2.22,.39-2.84,1.18-.62,.79-.93,1.94-.93,3.45,0,1.41,.31,2.5,.93,3.28,.62,.77,1.52,1.16,2.71,1.16,.76,0,1.42-.17,1.98-.51s.98-.83,1.28-1.48l3.07,.93c-.53,1.25-1.36,2.23-2.47,2.93-1.11,.7-2.34,1.04-3.68,1.04Zm-4.8-6.49v-2.35h9.58v2.35h-9.58Z" />
                    <path class="cls-2"
                        d="M315.52,261.16c-1.72,0-3.12-.39-4.19-1.16-1.08-.77-1.73-1.86-1.96-3.26l3.17-.49c.16,.69,.52,1.23,1.08,1.62s1.26,.59,2.12,.59c.75,0,1.33-.15,1.73-.44,.41-.3,.61-.7,.61-1.22,0-.32-.08-.57-.23-.77s-.48-.38-.99-.56c-.51-.18-1.29-.41-2.33-.68-1.17-.31-2.1-.64-2.79-1-.69-.36-1.18-.78-1.48-1.27-.3-.49-.45-1.08-.45-1.78,0-.87,.23-1.62,.68-2.27,.46-.64,1.09-1.14,1.91-1.49,.82-.35,1.78-.52,2.89-.52s2.04,.17,2.88,.5c.84,.33,1.52,.81,2.03,1.43,.52,.62,.83,1.35,.96,2.18l-3.17,.57c-.08-.59-.35-1.06-.81-1.41s-1.07-.54-1.84-.58c-.73-.04-1.32,.07-1.77,.33-.45,.26-.67,.63-.67,1.1,0,.27,.09,.49,.27,.68,.18,.19,.54,.38,1.09,.57,.55,.19,1.36,.42,2.44,.7,1.11,.28,2,.61,2.66,.97,.67,.37,1.15,.8,1.44,1.31,.3,.51,.44,1.12,.44,1.84,0,1.4-.51,2.5-1.53,3.3-1.02,.8-2.43,1.2-4.22,1.2Z" />
                    <path class="cls-2" d="M329.52,260.77v-18.57h3.11v15.66h8.2v2.91h-11.31Z" />
                    <path class="cls-2"
                        d="M350.17,261.16c-1.2,0-2.33-.21-3.39-.64-1.05-.42-1.98-1.05-2.77-1.88s-1.42-1.84-1.86-3.04-.67-2.57-.67-4.12c0-2.03,.38-3.76,1.13-5.2,.76-1.44,1.79-2.54,3.11-3.31s2.8-1.15,4.45-1.15c2.29,0,4.1,.53,5.44,1.59,1.34,1.06,2.24,2.55,2.71,4.47l-3.17,.5c-.35-1.1-.93-1.98-1.73-2.64-.8-.66-1.82-.99-3.06-.99-1.25-.02-2.28,.25-3.11,.81-.83,.56-1.45,1.35-1.86,2.36-.42,1.01-.62,2.2-.62,3.56s.21,2.54,.62,3.54c.41,1,1.03,1.78,1.86,2.34,.83,.56,1.87,.85,3.11,.86,.94,0,1.76-.16,2.46-.51,.71-.35,1.28-.88,1.73-1.59,.45-.71,.75-1.6,.9-2.66h-3.28v-2.44h6.58c.02,.14,.03,.34,.04,.61,0,.27,.01,.43,.01,.48,0,1.75-.35,3.31-1.04,4.67-.69,1.36-1.68,2.43-2.97,3.21-1.29,.77-2.83,1.16-4.63,1.16Z" />
                    <path class="cls-2"
                        d="M361.39,260.77v-18.57h7.36c1.25,0,2.29,.25,3.09,.75s1.4,1.15,1.79,1.93c.39,.78,.59,1.59,.59,2.42,0,1.02-.24,1.89-.73,2.61-.49,.71-1.15,1.2-1.98,1.44v-.64c1.17,.27,2.06,.82,2.66,1.66s.91,1.8,.91,2.88-.21,2.06-.63,2.89-1.05,1.47-1.88,1.93c-.83,.46-1.86,.7-3.08,.7h-8.11Zm3.15-11.16h4.18c.45,0,.85-.09,1.2-.26s.63-.43,.84-.76,.31-.75,.31-1.24c0-.64-.21-1.18-.62-1.61-.41-.43-.99-.64-1.73-.64h-4.18v4.51Zm0,8.23h4.58c.54,0,1.03-.11,1.46-.33,.43-.22,.77-.53,1.01-.93,.25-.4,.37-.88,.37-1.42,0-.5-.11-.95-.32-1.34s-.53-.71-.94-.95-.91-.36-1.48-.36h-4.67v5.33Z" />
                    <path class="cls-2"
                        d="M381.61,260.77v-15.66h-6.01v-2.91h15.13v2.91h-6.01v15.66h-3.11Z" />
                    <path class="cls-2"
                        d="M400.64,261.16c-1.86,0-3.45-.41-4.77-1.22s-2.34-1.95-3.05-3.4c-.71-1.45-1.06-3.14-1.06-5.06s.35-3.6,1.06-5.06c.71-1.45,1.73-2.58,3.05-3.4s2.91-1.22,4.77-1.22,3.45,.41,4.78,1.22c1.33,.81,2.35,1.95,3.06,3.4,.71,1.45,1.06,3.14,1.06,5.06s-.35,3.6-1.06,5.06c-.71,1.45-1.73,2.58-3.06,3.4-1.33,.81-2.92,1.22-4.78,1.22Zm0-2.93c1.25,0,2.28-.27,3.11-.83,.83-.56,1.45-1.34,1.87-2.36s.62-2.2,.62-3.56-.21-2.54-.62-3.54c-.42-1-1.04-1.78-1.87-2.34-.83-.56-1.87-.85-3.11-.86-1.25,0-2.28,.27-3.11,.83-.83,.56-1.45,1.35-1.86,2.36-.42,1.01-.62,2.2-.62,3.56s.21,2.54,.62,3.54c.41,1,1.03,1.78,1.86,2.34,.83,.56,1.87,.85,3.11,.86Zm6.68,2.93l-5.3-5.27,1.95-1.95,5.27,5.27-1.92,1.95Z" />
                    <path class="cls-2"
                        d="M417.13,257.32v-4.62h-4.62v-2.44h4.62v-4.6h2.44v4.6h4.59v2.44h-4.59v4.62h-2.44Z" />
                </g>
            </g>
        </g>
    </g>
</svg>